<svg width="40" height="40" viewBox="0 0 40 40" fill="none" xmlns="http://www.w3.org/2000/svg">
<path d="M19.858 18.674C21.13 18.684 22.398 18.795 23.653 19.005L29.5 37.232C26.5498 38.8655 23.2328 39.7225 19.8605 39.7225C16.4883 39.7225 13.1713 38.8655 10.221 37.232L16.068 19.005C17.3206 18.7946 18.5879 18.6839 19.858 18.674ZM13.095 19.705L7.51504 33.147C7.01104 34.347 6.35804 34.479 5.57904 33.674C3.76038 31.7882 2.32995 29.5634 1.36904 27.126C4.56603 23.6751 8.60768 21.1167 13.095 19.705ZM26.621 19.705C31.1085 21.1169 35.1502 23.6748 38.347 27.126L38.332 27.11L38.139 27.585C37.2557 29.6739 36.0201 31.5955 34.486 33.266L34.126 33.647C33.353 34.479 32.721 34.347 32.195 33.121L26.621 19.705ZM37.526 10.779C38.9713 13.587 39.7239 16.6999 39.721 19.858C39.7205 20.7861 39.6553 21.713 39.526 22.632C35.2961 20.1444 30.6367 18.4731 25.79 17.705L22.916 10.779H37.526ZM16.8 10.779L13.926 17.705C9.08048 18.4714 4.42243 20.1428 0.195045 22.632C0.0657619 21.713 0.00060441 20.7861 4.48777e-05 19.858C-0.00669638 16.6995 0.74613 13.5856 2.19504 10.779H16.8ZM19.86 10.689C20.496 10.689 21.067 11.077 21.3 11.669L23.158 17.369C20.9728 17.1795 18.7753 17.1795 16.59 17.369L18.421 11.669C18.654 11.077 19.224 10.689 19.86 10.689ZM19.859 1.45848e-05C22.8686 -0.00306691 25.8393 0.679241 28.5458 1.99519C31.2524 3.31113 33.6238 5.22616 35.48 7.59501C30.362 8.81107 25.1196 9.42556 19.859 9.42601C14.6 9.42601 9.35905 8.81101 4.24304 7.59501C6.09769 5.22584 8.46787 3.3105 11.1736 1.99448C13.8793 0.678455 16.8503 -0.00363703 19.859 1.45848e-05Z" fill="url(#paint0_linear_3046_17885)"/>
<defs>
<linearGradient id="paint0_linear_3046_17885" x1="26.779" y1="31.0802" x2="13.3153" y2="9.36881" gradientUnits="userSpaceOnUse">
<stop stop-color="#1281FF"/>
<stop offset="1" stop-color="#5CE9FF"/>
</linearGradient>
</defs>
</svg>
