<svg width="12" height="12" viewBox="0 0 12 12" fill="none" xmlns="http://www.w3.org/2000/svg">
<path d="M6.33812 0.257602C7.34254 3.89813 8.10013 4.65567 11.7408 5.66094C11.8153 5.68134 11.881 5.72555 11.9278 5.78676C11.9746 5.84797 12 5.92281 12 5.99978C12 6.07674 11.9746 6.15158 11.9278 6.2128C11.881 6.27401 11.8153 6.31821 11.7408 6.33861C8.10013 7.34388 7.34344 8.10143 6.33812 11.742C6.31787 11.816 6.27375 11.8814 6.21255 11.928C6.15135 11.9747 6.07646 11.9999 5.99941 12C5.92241 11.9998 5.84759 11.9744 5.78642 11.9278C5.72525 11.8812 5.68109 11.8159 5.66071 11.742C4.65539 8.10143 3.8978 7.34478 0.257579 6.33861C0.183472 6.31793 0.118185 6.27367 0.071679 6.21258C0.0251729 6.15148 0 6.07691 0 6.00023C0 5.92355 0.0251729 5.84897 0.071679 5.78787C0.118185 5.72678 0.183472 5.68252 0.257579 5.66184C3.8978 4.65612 4.65539 3.89858 5.66071 0.25805C5.68095 0.183984 5.72508 0.118603 5.78628 0.0719747C5.84748 0.0253466 5.92237 5.69782e-05 5.99941 0C6.15706 0 6.29578 0.105016 6.33812 0.257602Z" fill="url(#paint0_linear_301_2128)"/>
<defs>
<linearGradient id="paint0_linear_301_2128" x1="6" y1="-1.78815e-08" x2="6" y2="12" gradientUnits="userSpaceOnUse">
<stop stop-color="#35D3FF"/>
<stop offset="1" stop-color="#177CFF"/>
</linearGradient>
</defs>
</svg>
